<?xml version="1.0" encoding="utf-8"?>
<!-- Generator: Adobe Illustrator 22.1.0, SVG Export Plug-In . SVG Version: 6.00 Build 0)  -->
<svg version="1.1" id="Layer_1" xmlns="http://www.w3.org/2000/svg" xmlns:xlink="http://www.w3.org/1999/xlink" x="0px" y="0px"
	 viewBox="0 0 200 80" style="enable-background:new 0 0 200 80;" xml:space="preserve">
<style type="text/css">
	.st0{fill:#080A0E;}
</style>
<g>
	<path class="st0" d="M87.5,35.8c1.2,0.7,2.7,1.1,4.3,1.1c1.9,0,3.5-0.5,4.7-1.4c1.3-1,1.9-2.3,1.9-4c0-1.2-0.3-2.2-1-3
		c-0.6-0.8-1.4-1.3-2.4-1.6L92.5,26c-0.8-0.3-1.5-0.5-2.1-0.8c-0.5-0.3-0.7-0.6-0.7-1c0-0.4,0.2-0.8,0.5-1c0.4-0.3,0.9-0.4,1.5-0.4
		c1.2,0,2.1,0.5,2.6,1.4c0.2,0.3,0.6,0.4,0.9,0.3l2.4-1.3c0.2-0.1,0.3-0.2,0.3-0.4c0-0.2,0-0.4-0.1-0.5c-0.6-1-1.4-1.7-2.4-2.3
		c-1.1-0.6-2.4-0.9-3.8-0.9c-1.8,0-3.3,0.5-4.5,1.4c-1.2,1-1.8,2.3-1.8,3.9c0,1.2,0.3,2.1,1,2.9c0.6,0.8,1.4,1.3,2.4,1.6l2.6,0.8
		c0.8,0.3,1.5,0.5,2.1,0.9c0.5,0.3,0.7,0.6,0.7,1c0,0.6-0.3,1.5-2.4,1.5c-1.6,0-2.6-0.6-3.2-1.8c-0.1-0.2-0.2-0.3-0.4-0.4
		c-0.2-0.1-0.4,0-0.5,0.1l-2.4,1.4c-0.3,0.2-0.4,0.6-0.3,0.9C85.5,34.2,86.4,35.1,87.5,35.8"/>
	<path class="st0" d="M102,16.8c0.6,0,1.1-0.2,1.5-0.6v0c0.4-0.4,0.6-0.9,0.6-1.5c0-0.6-0.2-1.1-0.6-1.5c-0.4-0.4-0.9-0.7-1.6-0.7
		c-0.6,0-1.1,0.2-1.6,0.7c-0.4,0.4-0.6,0.9-0.6,1.5c0,0.6,0.2,1.1,0.6,1.5C100.9,16.6,101.4,16.8,102,16.8"/>
	<path class="st0" d="M104.1,20.1c0-0.4-0.3-0.7-0.7-0.7h-2.8c-0.4,0-0.7,0.3-0.7,0.7v15.6c0,0.4,0.3,0.7,0.7,0.7h2.8
		c0.4,0,0.7-0.3,0.7-0.7V20.1z"/>
	<path class="st0" d="M125.4,36.4h3c0.3,0,0.6-0.3,0.6-0.6v-8.9c0-1.3,0.3-2.3,0.9-3c0.6-0.7,1.4-1,2.4-1c0.9,0,1.5,0.3,2,0.8
		c0.5,0.6,0.7,1.4,0.7,2.4v9.6c0,0.3,0.3,0.6,0.6,0.6h3c0.3,0,0.6-0.3,0.6-0.6v-8.9c0-1.3,0.3-2.4,0.9-3c0.6-0.7,1.4-1,2.4-1
		c0.9,0,1.6,0.3,2.1,0.8c0.5,0.6,0.8,1.4,0.8,2.4v9.6c0,0.3,0.3,0.6,0.6,0.6h3c0.3,0,0.6-0.3,0.6-0.6V26c0-2.1-0.6-3.8-1.8-5.1
		c-1.2-1.3-2.8-1.9-4.7-1.9c-2.2,0-3.8,0.8-5,2.3c-1.1-1.5-2.6-2.3-4.6-2.3c-1.8,0-3.3,0.6-4.3,1.8V20c0-0.3-0.3-0.6-0.6-0.6h-3
		c-0.3,0-0.6,0.3-0.6,0.6v15.8C124.8,36.1,125.1,36.4,125.4,36.4"/>
	<path class="st0" d="M152.5,40.4h2.7c0.4,0,0.8-0.3,0.8-0.8v-4.7c0,0,0-0.1,0.1-0.1c0,0,0.1,0,0.1,0c1.3,1.3,3.1,2,5.2,2
		c2.3,0,4.3-0.9,6-2.6c1.6-1.7,2.5-3.8,2.5-6.3c0-2.5-0.8-4.6-2.5-6.3c-1.6-1.7-3.7-2.6-6-2.6c-2.2,0-4,0.7-5.4,2.2v-1
		c0-0.4-0.3-0.8-0.8-0.8h-2.7c-0.4,0-0.8,0.3-0.8,0.8v19.5C151.7,40.1,152.1,40.4,152.5,40.4 M155.9,27.9c0-1.4,0.4-2.6,1.4-3.5
		c0.9-0.9,2.1-1.4,3.5-1.4c1.4,0,2.5,0.5,3.5,1.4c0.9,0.9,1.4,2.1,1.4,3.5c0,1.4-0.4,2.6-1.4,3.5c-0.9,0.9-2.1,1.4-3.5,1.4
		c-1.4,0-2.5-0.5-3.5-1.4C156.4,30.5,155.9,29.3,155.9,27.9"/>
	<path class="st0" d="M172.4,36.4h2.3c0.5,0,0.9-0.4,0.9-0.9v-7.6c0-1.6,0.4-2.7,1.4-3.3c0.8-0.6,1.7-0.9,2.7-0.9
		c0.5,0,0.9-0.4,0.9-0.9v-2.5c0-0.3-0.1-0.5-0.3-0.7c-0.2-0.2-0.4-0.3-0.7-0.2c-1.8,0.1-3.1,0.8-4,2.1v-0.9c0-0.5-0.4-0.9-0.9-0.9
		h-2.3c-0.5,0-0.9,0.4-0.9,0.9v15.1C171.5,36,171.9,36.4,172.4,36.4"/>
	<path class="st0" d="M197.9,29.5c0.1-0.6,0.1-1.1,0.1-1.5c0-2.5-0.8-4.6-2.4-6.3c-1.6-1.7-3.7-2.6-6.1-2.6c-2.6,0-4.8,0.9-6.4,2.6
		c-1.7,1.7-2.5,3.8-2.5,6.4c0,2.6,0.9,4.7,2.5,6.4c1.7,1.7,3.9,2.5,6.7,2.5c3,0,5.4-1.1,7.1-3.2c0.1-0.2,0.2-0.4,0.2-0.7
		c0-0.2-0.2-0.4-0.4-0.6l-1.7-1c-0.5-0.3-1.2-0.2-1.6,0.2c-0.9,0.9-2,1.4-3.5,1.4c-1.3,0-2.4-0.3-3.2-0.9c-0.5-0.4-1-0.9-1.3-1.5
		c-0.1-0.2-0.1-0.4,0-0.5c0.1-0.2,0.3-0.2,0.4-0.2h11.8C197.7,29.7,197.8,29.6,197.9,29.5 M185.1,25.6c0.3-0.7,0.7-1.3,1.3-1.8
		c0.8-0.7,1.8-1,3.1-1c1.1,0,2,0.3,2.8,0.9c0.6,0.4,1,1.1,1.3,1.8c0,0.1,0,0.3-0.1,0.4c-0.1,0.1-0.2,0.2-0.4,0.2h-7.5
		c-0.2,0-0.3-0.1-0.4-0.2C185.1,25.9,185.1,25.7,185.1,25.6"/>
	<path class="st0" d="M114.7,19c-2.6,0-4.8,0.9-6.4,2.6c-1.7,1.7-2.5,3.8-2.5,6.4c0,2.6,0.9,4.7,2.5,6.4c1.7,1.7,3.9,2.5,6.7,2.5
		c3,0,5.4-1.1,7.1-3.2c0.1-0.2,0.2-0.4,0.2-0.7c0-0.2-0.2-0.4-0.4-0.6l-1.7-1c-0.5-0.3-1.2-0.2-1.6,0.2c-0.9,0.9-2,1.4-3.5,1.4
		c-1.3,0-2.4-0.3-3.2-0.9c-0.5-0.4-1-0.9-1.3-1.5c-0.1-0.2-0.1-0.4,0-0.5c0.1-0.2,0.3-0.2,0.4-0.2h11.8c0.2,0,0.3-0.1,0.3-0.3
		c0.1-0.6,0.1-1.1,0.1-1.5c0-2.5-0.8-4.6-2.4-6.3C119.3,19.9,117.2,19,114.7,19 M110.4,25.6c0.3-0.7,0.7-1.3,1.3-1.8
		c0.8-0.7,1.8-1,3.1-1c1.1,0,2,0.3,2.8,0.9c0.6,0.4,1,1.1,1.3,1.8c0,0.1,0,0.3-0.1,0.4c-0.1,0.1-0.2,0.2-0.4,0.2h-7.5
		c-0.2,0-0.3-0.1-0.4-0.2C110.3,25.9,110.3,25.7,110.4,25.6"/>
	<path class="st0" d="M93.7,43.6c-2.6,0-4.8,0.9-6.4,2.6c-1.7,1.7-2.5,3.8-2.5,6.4c0,2.6,0.9,4.7,2.5,6.4c1.7,1.7,3.9,2.5,6.7,2.5
		c3,0,5.4-1.1,7.1-3.2c0.1-0.2,0.2-0.4,0.2-0.7c0-0.2-0.2-0.4-0.4-0.6l-1.7-1c-0.5-0.3-1.2-0.2-1.6,0.2c-0.9,0.9-2,1.4-3.5,1.4
		c-1.3,0-2.4-0.3-3.2-0.9c-0.5-0.4-1-0.9-1.3-1.5c-0.1-0.2-0.1-0.4,0-0.5c0.1-0.2,0.3-0.2,0.4-0.2h11.8c0.2,0,0.3-0.1,0.3-0.3
		c0.1-0.6,0.1-1.1,0.1-1.5c0-2.5-0.8-4.6-2.4-6.3C98.3,44.5,96.2,43.6,93.7,43.6 M89.4,50.2c0.3-0.7,0.7-1.3,1.3-1.8
		c0.8-0.7,1.8-1,3.1-1c1.1,0,2,0.3,2.8,0.9c0.6,0.4,1,1.1,1.3,1.8c0,0.1,0,0.3-0.1,0.4c-0.1,0.1-0.2,0.2-0.4,0.2h-7.5
		c-0.2,0-0.3-0.1-0.4-0.2C89.3,50.5,89.3,50.4,89.4,50.2"/>
	<path class="st0" d="M113,43.6c-2,0-3.6,0.6-4.7,1.9v-0.6c0-0.5-0.4-0.9-0.9-0.9H105c-0.5,0-0.9,0.4-0.9,0.9v15.2
		c0,0.5,0.4,0.9,0.9,0.9h2.4c0.5,0,0.9-0.4,0.9-0.9v-8.2c0-1.5,0.4-2.6,1-3.3c0.7-0.7,1.6-1.1,2.8-1.1c1.1,0,1.9,0.3,2.4,0.9
		c0.6,0.6,0.9,1.5,0.9,2.6v9.1c0,0.5,0.4,0.9,0.9,0.9h2.4c0.5,0,0.9-0.4,0.9-0.9v-9.5c0-2.2-0.6-3.9-1.8-5.2
		C116.6,44.2,115,43.6,113,43.6"/>
	<path class="st0" d="M143.2,56.3l-2-1.1c-0.4-0.2-1-0.1-1.2,0.3c-0.3,0.5-0.8,0.9-1.4,1.3c-0.7,0.4-1.5,0.6-2.4,0.6
		c-1.4,0-2.5-0.4-3.4-1.4c-0.9-0.9-1.4-2-1.4-3.4c0-1.4,0.5-2.5,1.4-3.4c0.9-0.9,2-1.4,3.4-1.4c0.9,0,1.7,0.2,2.4,0.6
		c0.5,0.3,1,0.7,1.3,1.2c0.3,0.4,0.8,0.5,1.3,0.3l2-1.1c0.2-0.1,0.4-0.3,0.5-0.6c0.1-0.2,0-0.5-0.1-0.7c-0.7-1.1-1.6-2-2.7-2.6
		c-1.4-0.8-2.9-1.2-4.5-1.2c-2.5,0-4.7,0.9-6.4,2.6c-1.7,1.7-2.6,3.8-2.6,6.4c0,2.5,0.9,4.6,2.6,6.3c1.7,1.7,3.8,2.6,6.4,2.6
		c1.6,0,3.2-0.4,4.5-1.2c1.2-0.7,2.1-1.6,2.8-2.7c0.1-0.2,0.2-0.5,0.1-0.7C143.6,56.6,143.4,56.4,143.2,56.3"/>
	<path class="st0" d="M162.3,44h-2.9c-0.4,0-0.6,0.3-0.6,0.6v1.1c-1.3-1.4-3.2-2.2-5.4-2.2c-2.3,0-4.3,0.9-6,2.6
		c-1.6,1.7-2.5,3.8-2.5,6.3c0,2.5,0.8,4.6,2.5,6.3c1.6,1.7,3.7,2.6,6,2.6c2.2,0,4-0.7,5.4-2.2v1.1c0,0.4,0.3,0.6,0.6,0.6h2.9
		c0.4,0,0.6-0.3,0.6-0.6V44.7C163,44.3,162.7,44,162.3,44 M158.8,52.5c0,1.4-0.5,2.6-1.4,3.5c-0.9,0.9-2.1,1.4-3.5,1.4
		c-1.4,0-2.5-0.5-3.5-1.4c-0.9-0.9-1.4-2.1-1.4-3.5c0-1.4,0.4-2.6,1.4-3.5c0.9-0.9,2.1-1.4,3.5-1.4c1.4,0,2.5,0.5,3.5,1.4
		C158.3,50,158.8,51.1,158.8,52.5"/>
	<path class="st0" d="M175.2,51.5l-2.6-0.8c-0.8-0.3-1.5-0.5-2.1-0.8c-0.5-0.3-0.7-0.6-0.7-1c0-0.4,0.2-0.8,0.5-1
		c0.4-0.3,0.9-0.4,1.5-0.4c1.2,0,2,0.4,2.6,1.3c0.2,0.4,0.8,0.5,1.2,0.3l2-1.1c0.2-0.1,0.4-0.3,0.4-0.6c0.1-0.2,0-0.5-0.1-0.7
		c-0.6-0.9-1.3-1.6-2.3-2.1c-1.1-0.6-2.4-0.9-3.8-0.9c-1.8,0-3.3,0.5-4.5,1.4c-1.2,1-1.8,2.3-1.8,3.9c0,1.2,0.3,2.1,1,2.9
		c0.6,0.8,1.4,1.3,2.4,1.6l2.6,0.8c0.8,0.3,1.5,0.5,2.1,0.9c0.5,0.3,0.7,0.6,0.7,1c0,0.6-0.3,1.5-2.4,1.5c-1.5,0-2.5-0.5-3.1-1.7
		c-0.1-0.2-0.3-0.4-0.5-0.4c-0.2-0.1-0.5,0-0.7,0.1l-2,1.2c-0.4,0.2-0.6,0.8-0.3,1.2c0.6,1,1.4,1.8,2.4,2.5c1.2,0.7,2.6,1.1,4.3,1.1
		c1.9,0,3.5-0.5,4.7-1.4c1.3-1,1.9-2.3,1.9-4c0-1.2-0.3-2.2-1-3C177,52.3,176.2,51.8,175.2,51.5"/>
	<path class="st0" d="M197.5,44H194c-0.2,0-0.3,0.1-0.3,0.3v1.4c-1.3-1.4-3.2-2.2-5.4-2.2c-2.3,0-4.3,0.9-6,2.6
		c-1.6,1.7-2.5,3.8-2.5,6.3c0,2.5,0.8,4.6,2.5,6.3c1.6,1.7,3.7,2.6,6,2.6c2.2,0,4-0.7,5.4-2.2v1.4c0,0.2,0.1,0.3,0.3,0.3h3.5
		c0.2,0,0.3-0.1,0.3-0.3V44.4C197.9,44.2,197.7,44,197.5,44 M193.7,52.5c0,1.4-0.4,2.6-1.4,3.5c-0.9,0.9-2.1,1.4-3.5,1.4
		c-1.4,0-2.5-0.5-3.5-1.4c-0.9-0.9-1.4-2.1-1.4-3.5c0-1.4,0.4-2.6,1.4-3.5c0.9-0.9,2.1-1.4,3.5-1.4c1.4,0,2.5,0.5,3.5,1.4
		C193.2,50,193.7,51.1,193.7,52.5"/>
	<path class="st0" d="M62.9,21.4h0.4v-1.7h0.6v-0.4h-1.5v0.4h0.6V21.4z M64.7,20.4l0-0.3h0l0.5,0.9h0.2L66,20h0l0,0.3v1h0.4v-2.1H66
		l-0.6,1.1h0l-0.6-1.1h-0.4v2.1h0.4V20.4z M70.7,52.6L59.4,20.8c-0.4-1.2-1.4-2.1-2.7-2.4l-14.3-3.2c-1-0.2-2,0.1-2.7,0.8l-6.1,6.4
		c-0.3,0.2-0.7,0.1-0.8-0.2L31.4,18c-0.5-1.5-2.2-2.3-3.8-1.8c-1.5,0.5-2.3,2.2-1.8,3.7l4,11.2c0.2,0.6,0.8,1.1,1.5,1.2
		c0.6,0.1,1.2-0.1,1.8-0.7l9.2-9.5c0.4-0.4,0.9-0.6,1.5-0.4l10.1,2.3c0.3,0.1,0.5,0.2,0.6,0.5l10.2,28.8c0.4,1-0.2,2.1-1.2,2.5
		l-22.6,8c-1.3,0.5-1.9,2-1.5,3.3c0.3,0.9,0.5,2,0.1,3c-0.6,1.9-2.6,3.1-4.5,2.9c-1.5-0.2-2.7-1-3.4-2.4c-0.2-0.5-0.4-1-0.4-1.5
		c-0.2-2.2,1.2-3.8,3.2-4.5c0.5-0.2,1.1-0.7,1.4-1.2c0.3-0.6,0.3-1.2,0.1-1.9L16.1,6.2c-0.6-1.8-2.1-3.1-4-3.5L5.6,1.3
		C4,0.9,2.4,1.9,2.1,3.5l0,0.1C1.7,5.2,2.7,6.7,4.3,7.1c2.3,0.5,5,1.1,5,1.1c0.8,0.2,1.4,0.7,1.7,1.5l18,50.7c0.1,0.2,0,0.4-0.2,0.6
		c-2.4,2-3.8,5-3.6,8.3c0.2,4.5,3.5,8.3,7.8,9.3c0.9,0.2,1.8,0.3,2.6,0.2c1.7-0.1,3.3-0.6,4.8-1.5c2.4-1.4,4-3.7,4.6-6.5
		c0.2-0.7,0.2-1.4,0.2-2.1c0-0.2,0.1-0.4,0.3-0.4l20.9-7.4c1.2-0.4,2.4-1.2,3.2-2.3C71.1,56.8,71.4,54.6,70.7,52.6"/>
</g>
</svg>
